# Blender v2.76 (sub 0) OBJ File: ''
# www.blender.org
o e.000
v -0.306255 2.021285 0.214379
v -0.153128 1.776281 -0.214378
v -0.153128 1.776281 0.214379
v 0.704387 1.470026 0.214379
v 0.949392 1.347524 -0.214379
v 0.949392 1.347524 0.214379
v 0.704387 1.470026 -0.214379
v 0.398132 1.408775 0.214379
v 0.398132 1.408775 -0.214379
v 0.306255 1.102519 -0.214379
v 0.306255 1.102519 0.214379
v 0.398132 0.826889 0.214379
v 0.398132 0.826890 -0.214379
v 0.704387 0.735013 0.214379
v 0.704387 0.735013 -0.214379
v 0.949392 0.888140 0.214379
v 0.949392 0.888141 -0.214379
v 0.459383 0.275630 0.214379
v 0.306255 0.030626 -0.214379
v 0.306255 0.030625 0.214379
v 0.459383 0.275630 -0.214379
v 0.367506 0.551260 0.214379
v 0.367506 0.551260 -0.214379
v 0.091877 0.673762 0.214379
v 0.091877 0.673762 -0.214379
v -0.214379 0.551260 0.214379
v -0.214379 0.551260 -0.214379
v -0.306255 0.245004 0.214379
v -0.306255 0.245004 -0.214379
v -0.153128 0.030625 0.214379
v -0.153128 0.030626 -0.214379
v 0.306255 1.776281 -0.214378
v 0.459383 2.021285 -0.214378
v 0.306255 1.776281 0.214379
v 0.459383 2.021285 0.214379
v 0.367506 2.327541 -0.214378
v 0.367506 2.327541 0.214379
v 0.061251 2.419417 -0.214378
v 0.061251 2.419417 0.214379
v -0.214379 2.327541 -0.214378
v -0.214379 2.327541 0.214379
v -0.306255 2.021285 -0.214378
v -0.306255 2.021285 0.214379
v -0.153128 1.776281 -0.214378
v -0.796264 1.316898 -0.214379
v -1.041268 1.470026 -0.214379
v -0.796264 1.316898 0.214379
v -1.041268 1.470026 0.214379
v -1.347524 1.408775 -0.214379
v -1.347524 1.408775 0.214379
v -1.470026 1.102519 -0.214379
v -1.470026 1.102519 0.214379
v -1.347524 0.826890 -0.214379
v -1.347524 0.826889 0.214379
v -1.041268 0.735013 -0.214379
v -1.041268 0.735013 0.214379
v -0.796264 0.888141 -0.214379
v -0.796264 0.888140 0.214379
v -1.470026 1.102519 0.214379
v -1.347524 0.826889 0.214379
v -1.347524 1.408775 0.214379
v -1.041268 1.470026 0.214379
v -1.041268 0.735013 0.214379
v -0.796264 1.316898 0.214379
v -1.041268 1.470026 0.214379
v -1.041268 0.735013 0.214379
v -0.796264 0.888140 0.214379
v -0.796264 0.030625 0.214379
v -0.153128 0.030625 0.214379
v -0.306255 0.245004 0.214379
v -0.214379 0.551260 0.214379
v -0.153128 1.776281 0.214379
v -0.796264 1.776281 0.214379
v 0.091877 0.673762 0.214379
v 0.306255 1.776281 0.214379
v -0.306255 2.021285 0.214379
v 0.459383 2.021285 0.214379
v -0.214379 2.327541 0.214379
v 0.367506 2.327541 0.214379
v 0.061251 2.419417 0.214379
v 0.306255 1.102519 0.214379
v 0.398132 1.408775 0.214379
v 0.704387 1.470026 0.214379
v 0.949392 1.776281 0.214379
v 0.949392 1.347524 0.214379
v 0.398132 0.826889 0.214379
v 0.367506 0.551260 0.214379
v 0.704387 0.735013 0.214379
v 0.459383 0.275630 0.214379
v 0.949392 0.030625 0.214379
v 0.949392 0.888140 0.214379
v 0.306255 0.030625 0.214379
v -0.796264 0.030625 0.214379
v -0.153128 0.030626 -0.214379
v -0.153128 0.030625 0.214379
v -0.796264 0.030626 -0.214379
v -0.153128 0.030626 -0.214379
v -0.796264 0.030625 0.214379
v -0.796264 0.888140 0.214379
v -0.796264 0.030626 -0.214379
v -0.796264 0.030625 0.214379
v -0.796264 0.888141 -0.214379
v -0.796264 1.776281 0.214379
v -0.796264 1.316898 -0.214379
v -0.796264 1.316898 0.214379
v -0.796264 1.776281 -0.214378
v -0.153128 1.776281 0.214379
v -0.796264 1.776281 -0.214378
v -0.796264 1.776281 0.214379
v -0.153128 1.776281 -0.214378
v 0.949392 1.776281 0.214379
v 0.306255 1.776281 -0.214378
v 0.306255 1.776281 0.214379
v 0.949392 1.776281 -0.214378
v 0.949392 1.347524 0.214379
v 0.949392 1.776281 -0.214378
v 0.949392 1.776281 0.214379
v 0.949392 1.347524 -0.214379
v 0.949392 0.030625 0.214379
v 0.949392 0.888141 -0.214379
v 0.949392 0.888140 0.214379
v 0.949392 0.030626 -0.214379
v 0.306255 0.030625 0.214379
v 0.949392 0.030626 -0.214379
v 0.949392 0.030625 0.214379
v 0.306255 0.030626 -0.214379
v -1.347524 1.408775 -0.214379
v -1.347524 0.826890 -0.214379
v -1.470026 1.102519 -0.214379
v -1.041268 1.470026 -0.214379
v -1.041268 0.735013 -0.214379
v -0.796264 1.316898 -0.214379
v -0.796264 0.888141 -0.214379
v -0.306255 0.245004 -0.214379
v -0.153128 0.030626 -0.214379
v -0.796264 0.030626 -0.214379
v -0.214379 0.551260 -0.214379
v -0.796264 1.776281 -0.214378
v -0.153128 1.776281 -0.214378
v 0.091877 0.673762 -0.214379
v -0.306255 2.021285 -0.214378
v 0.306255 1.776281 -0.214378
v 0.459383 2.021285 -0.214378
v -0.214379 2.327541 -0.214378
v 0.367506 2.327541 -0.214378
v 0.061251 2.419417 -0.214378
v 0.306255 1.102519 -0.214379
v 0.398132 1.408775 -0.214379
v 0.704387 1.470026 -0.214379
v 0.949392 1.776281 -0.214378
v 0.949392 1.347524 -0.214379
v 0.398132 0.826890 -0.214379
v 0.367506 0.551260 -0.214379
v 0.704387 0.735013 -0.214379
v 0.459383 0.275630 -0.214379
v 0.949392 0.888141 -0.214379
v 0.949392 0.030626 -0.214379
v 0.306255 0.030626 -0.214379
vt 0.095728 -0.055698
vt 0.109741 -0.033259
vt 0.188204 -0.006888
vt 0.210643 0.007066
vt 0.160502 0.000916
vt 0.150096 0.027258
vt 0.160502 0.053599
vt 0.188204 0.061463
vt 0.210643 0.047450
vt 0.164109 0.105720
vt 0.150096 0.128159
vt 0.156245 0.078019
vt 0.129933 0.067613
vt 0.103592 0.078019
vt 0.095728 0.105720
vt 0.109741 0.128159
vt 0.150096 -0.033259
vt 0.164109 -0.055698
vt 0.156245 -0.083400
vt 0.129933 -0.093806
vt 0.103592 -0.083400
vt 0.049194 0.007066
vt 0.026755 -0.006888
vt -0.000946 0.000946
vt -0.011323 0.027258
vt -0.000946 0.053599
vt 0.026755 0.061463
vt 0.049194 0.047450
vt 0.049194 0.128159
vt 0.049194 -0.033259
vt 0.210643 -0.033259
vt 0.210643 0.128159
vn -0.848000 -0.530000 0.000000
vn -0.447200 -0.894400 0.000000
vn 0.196100 -0.980600 0.000000
vn 0.957800 -0.287300 0.000000
vn 0.948700 0.316200 0.000000
vn 0.287300 0.957800 0.000000
vn -0.530000 0.848000 0.000000
vn -0.848000 0.530000 0.000000
vn -0.948700 -0.316200 -0.000000
vn -0.406100 -0.913800 -0.000000
vn 0.371400 -0.928500 -0.000000
vn 0.813700 0.581200 0.000000
vn 0.848000 -0.530000 0.000000
vn 0.957800 0.287300 0.000000
vn -0.316200 0.948700 0.000000
vn -0.957800 0.287300 0.000000
vn 0.530000 0.848000 0.000000
vn -0.196100 0.980600 0.000000
vn -0.928500 0.371400 0.000000
vn -0.913800 -0.406100 0.000000
vn -0.287300 -0.957800 -0.000000
vn 0.530000 -0.848000 -0.000000
vn 0.000000 -0.000000 1.000000
vn 0.000000 -1.000000 -0.000000
vn -1.000000 0.000000 0.000000
vn 0.000000 1.000000 0.000000
vn 1.000000 0.000000 0.000000
vn 0.000000 0.000000 -1.000000
s off
f 1/1/1 2/2/1 3/2/1
f 4/3/2 5/4/2 6/4/2
f 7/3/2 5/4/2 4/3/2
f 8/5/3 7/3/3 4/3/3
f 9/5/3 7/3/3 8/5/3
f 10/6/4 9/5/4 11/6/4
f 11/6/4 9/5/4 8/5/4
f 12/7/5 10/6/5 11/6/5
f 13/7/5 10/6/5 12/7/5
f 14/8/6 13/7/6 12/7/6
f 15/8/6 13/7/6 14/8/6
f 16/9/7 15/8/7 14/8/7
f 17/9/7 15/8/7 16/9/7
f 18/10/8 19/11/8 20/11/8
f 21/10/8 19/11/8 18/10/8
f 22/12/9 21/10/9 18/10/9
f 23/12/9 21/10/9 22/12/9
f 24/13/10 23/12/10 22/12/10
f 25/13/10 23/12/10 24/13/10
f 26/14/11 25/13/11 24/13/11
f 27/14/11 25/13/11 26/14/11
f 28/15/4 27/14/4 26/14/4
f 29/15/4 27/14/4 28/15/4
f 30/16/12 29/15/12 28/15/12
f 31/16/12 29/15/12 30/16/12
f 32/17/13 33/18/13 34/17/13
f 34/17/13 33/18/13 35/18/13
f 33/18/14 36/19/14 35/18/14
f 35/18/14 36/19/14 37/19/14
f 36/19/6 38/20/6 37/19/6
f 37/19/6 38/20/6 39/20/6
f 38/20/15 40/21/15 39/20/15
f 39/20/15 40/21/15 41/21/15
f 40/21/16 42/1/16 41/21/16
f 41/21/16 42/1/16 43/1/16
f 42/1/1 44/2/1 43/1/1
f 45/22/17 46/23/17 47/22/17
f 47/22/17 46/23/17 48/23/17
f 46/23/18 49/24/18 48/23/18
f 48/23/18 49/24/18 50/24/18
f 49/24/19 51/25/19 50/24/19
f 50/24/19 51/25/19 52/25/19
f 51/25/20 53/26/20 52/25/20
f 52/25/20 53/26/20 54/26/20
f 53/26/21 55/27/21 54/26/21
f 54/26/21 55/27/21 56/27/21
f 55/27/22 57/28/22 56/27/22
f 56/27/22 57/28/22 58/28/22
f 59/25/23 60/26/23 61/24/23
f 60/26/23 62/23/23 61/24/23
f 63/27/23 62/23/23 60/26/23
f 64/22/23 65/23/23 66/27/23
f 66/27/23 67/28/23 64/22/23
f 68/29/23 69/16/23 70/15/23
f 67/28/23 68/29/23 70/15/23
f 70/15/23 71/14/23 67/28/23
f 72/2/23 73/30/23 67/28/23
f 67/28/23 71/14/23 72/2/23
f 71/14/23 74/13/23 72/2/23
f 75/17/23 76/1/23 72/2/23
f 77/18/23 76/1/23 75/17/23
f 78/21/23 76/1/23 77/18/23
f 77/18/23 79/19/23 78/21/23
f 80/20/23 78/21/23 79/19/23
f 72/2/23 74/13/23 75/17/23
f 75/17/23 74/13/23 81/6/23
f 81/6/23 82/5/23 75/17/23
f 82/5/23 83/3/23 75/17/23
f 83/3/23 84/31/23 75/17/23
f 85/4/23 84/31/23 83/3/23
f 74/13/23 86/7/23 81/6/23
f 87/12/23 86/7/23 74/13/23
f 88/8/23 86/7/23 87/12/23
f 87/12/23 89/10/23 88/8/23
f 90/32/23 91/9/23 88/8/23
f 88/8/23 89/10/23 90/32/23
f 92/11/23 90/32/23 89/10/23
f 93/29/24 94/16/24 95/16/24
f 96/29/24 97/16/24 98/29/24
f 99/28/25 100/29/25 101/29/25
f 102/28/25 100/29/25 99/28/25
f 103/30/25 104/22/25 105/22/25
f 106/30/25 104/22/25 103/30/25
f 107/2/26 108/30/26 109/30/26
f 110/2/26 108/30/26 107/2/26
f 111/31/26 112/17/26 113/17/26
f 114/31/26 112/17/26 111/31/26
f 115/4/27 116/31/27 117/31/27
f 118/4/27 116/31/27 115/4/27
f 119/32/27 120/9/27 121/9/27
f 122/32/27 120/9/27 119/32/27
f 123/11/24 124/32/24 125/32/24
f 126/11/24 124/32/24 123/11/24
f 127/24/28 128/26/28 129/25/28
f 127/24/28 130/23/28 128/26/28
f 128/26/28 130/23/28 131/27/28
f 131/27/28 130/23/28 132/22/28
f 132/22/28 133/28/28 131/27/28
f 134/15/28 135/16/28 136/29/28
f 134/15/28 136/29/28 133/28/28
f 133/28/28 137/14/28 134/15/28
f 133/28/28 138/30/28 139/2/28
f 139/2/28 137/14/28 133/28/28
f 139/2/28 140/13/28 137/14/28
f 139/2/28 141/1/28 142/17/28
f 142/17/28 141/1/28 143/18/28
f 143/18/28 141/1/28 144/21/28
f 144/21/28 145/19/28 143/18/28
f 145/19/28 144/21/28 146/20/28
f 142/17/28 140/13/28 139/2/28
f 147/6/28 140/13/28 142/17/28
f 142/17/28 148/5/28 147/6/28
f 142/17/28 149/3/28 148/5/28
f 142/17/28 150/31/28 149/3/28
f 149/3/28 150/31/28 151/4/28
f 147/6/28 152/7/28 140/13/28
f 140/13/28 152/7/28 153/12/28
f 153/12/28 152/7/28 154/8/28
f 154/8/28 155/10/28 153/12/28
f 154/8/28 156/9/28 157/32/28
f 157/32/28 155/10/28 154/8/28
f 155/10/28 157/32/28 158/11/28
